<svg width="77" height="55" viewBox="0 0 77 55" fill="none" xmlns="http://www.w3.org/2000/svg">
<style>
    #baka-logo-material-you {
        fill: #FEF7FF;

        @media(prefers-color-scheme: light) {
            fill: #6750A4;
        }
    }
</style>
<path id="baka-logo-material-you" fill-rule="evenodd" clip-rule="evenodd" d="M59.2778 0.00610192C59.7036 -0.0413066 60.082 0.195736 60.082 0.432779C60.082 0.669821 56.3449 9.06113 43.5724 37.1744L47.3095 37.2692C50.2898 37.364 51.094 37.5537 51.094 38.1226C51.094 38.6915 50.3844 38.8811 44.8497 39.0707L55.1149 47.225L58.4263 45.7079C60.2239 44.8546 64.1976 42.9582 72.6179 38.8337H63.961C56.6287 38.8337 55.3515 38.7389 55.3515 38.1226C55.3515 37.5063 56.8652 37.4114 65.9952 37.4114C72.6179 37.4114 76.7335 37.6011 76.8754 37.8855C77.0173 38.1226 76.8281 38.5492 76.497 38.7389C76.2131 38.9759 71.7664 41.1093 66.7047 43.5271C61.6431 45.945 57.291 48.0784 57.1018 48.2206C56.9125 48.4102 58.1898 49.6902 59.9401 51.0651C61.6904 52.4873 63.1568 53.8622 63.1568 54.1466C63.1568 54.5733 57.9533 54.763 23.4203 55L18.3113 47.3672C13.8173 40.6352 13.1078 39.8293 12.1616 40.0663C11.594 40.2085 8.70835 41.1093 5.82272 42.0575C2.29059 43.2269 0.366838 43.6536 0.0514686 43.3375C-0.279669 43.0056 0.85566 40.5878 7.3365 29.352L17.4598 29.4468C25.076 29.5416 27.6305 29.7313 27.7724 30.2053C27.867 30.632 25.8329 30.7742 18.6898 30.7742C13.6281 30.7742 9.46524 30.8691 9.46524 31.0113C9.46524 31.1535 12.5874 35.9418 16.4191 41.6782C20.2982 47.4146 23.5149 51.9659 23.6569 51.8236C23.7988 51.6814 27.0628 42.0101 38.085 9.20336L48.2557 4.60473C53.8377 2.09208 58.8047 0.00610192 59.2305 0.00610192H59.2778ZM39.8826 10.9101C39.788 11.2419 40.403 16.7887 41.2071 23.1889C42.0586 29.589 42.7209 34.8514 42.7682 34.8514C42.8155 34.8988 46.2215 27.5979 50.2898 18.6377C54.4053 9.67744 57.6221 2.32912 57.3856 2.37653C57.1964 2.37653 53.2227 4.17805 48.5395 6.31144C43.8563 8.44482 39.9772 10.5308 39.8826 10.9101ZM25.5964 51.634C31.6988 46.3242 35.1994 43.2427 37.3281 41.4412C40.4976 38.6915 41.1598 37.8855 41.1598 36.7003C41.1598 35.8944 40.5449 30.5846 39.788 24.8482C39.0311 19.1117 38.3215 14.3709 38.2742 14.3235C38.1796 14.2761 35.294 22.6674 31.8407 32.955L25.5964 51.634ZM2.79518 41.1567C2.9844 41.1567 5.20775 40.5404 7.76224 39.7345L12.3509 38.3596C9.18141 33.1921 8.14069 31.7224 8.04608 31.7224C7.95147 31.7224 6.62692 33.8558 5.16045 36.4633C3.64668 39.0707 2.60596 41.1567 2.79518 41.1567ZM26.3533 53.2933C39.8826 53.4829 47.4988 53.4829 51.9928 53.3881L60.1293 53.2933C46.9311 42.816 42.8628 39.687 42.5317 39.5448C42.2006 39.45 38.4161 42.4841 34.1586 46.3242L26.3533 53.2933Z" />
</svg>
