<svg width="321" height="55" viewBox="0 0 321 55" fill="none" xmlns="http://www.w3.org/2000/svg">
<path fill-rule="evenodd" clip-rule="evenodd" d="M59.2778 0.00610192C59.7035 -0.0413066 60.082 0.195736 60.082 0.432779C60.082 0.669821 56.3449 9.06113 43.5724 37.1744L47.3095 37.2692C50.2898 37.364 51.094 37.5537 51.094 38.1226C51.094 38.6915 50.3844 38.8811 44.8497 39.0707L55.1149 47.225L58.4263 45.7079C60.2239 44.8546 64.1976 42.9582 72.6179 38.8337H63.961C56.6287 38.8337 55.3515 38.7389 55.3515 38.1226C55.3515 37.5063 56.8652 37.4114 65.9952 37.4114C72.6179 37.4114 76.7335 37.6011 76.8754 37.8855C77.0173 38.1226 76.8281 38.5492 76.497 38.7389C76.2131 38.9759 71.7664 41.1093 66.7048 43.5271C61.6431 45.945 57.291 48.0784 57.1018 48.2206C56.9125 48.4102 58.1898 49.6902 59.9401 51.0651C61.6904 52.4873 63.1568 53.8622 63.1568 54.1466C63.1568 54.5733 57.9533 54.763 23.4203 55L18.3113 47.3672C13.8173 40.6352 13.1078 39.8293 12.1616 40.0663C11.594 40.2085 8.70835 41.1093 5.82272 42.0575C2.29059 43.2269 0.366838 43.6536 0.0514686 43.3375C-0.279669 43.0056 0.85566 40.5878 7.3365 29.352L17.4598 29.4468C25.076 29.5416 27.6305 29.7313 27.7724 30.2053C27.867 30.632 25.8329 30.7742 18.6898 30.7742C13.6281 30.7742 9.46524 30.8691 9.46524 31.0113C9.46524 31.1535 12.5874 35.9418 16.4191 41.6782C20.2982 47.4146 23.5149 51.9659 23.6569 51.8236C23.7988 51.6814 27.0628 42.0101 38.085 9.20336L48.2556 4.60473C53.8377 2.09208 58.8047 0.00610192 59.2305 0.00610192H59.2778ZM39.8826 10.9101C39.788 11.2419 40.403 16.7887 41.2071 23.1889C42.0586 29.589 42.7209 34.8514 42.7682 34.8514C42.8155 34.8988 46.2215 27.5979 50.2898 18.6377C54.4053 9.67744 57.6221 2.32912 57.3856 2.37653C57.1964 2.37653 53.2227 4.17805 48.5395 6.31144C43.8563 8.44482 39.9772 10.5308 39.8826 10.9101ZM25.5964 51.634C31.6988 46.3242 35.1994 43.2427 37.3281 41.4412C40.4976 38.6915 41.1598 37.8855 41.1598 36.7003C41.1598 35.8944 40.5449 30.5846 39.788 24.8482C39.0311 19.1117 38.3215 14.3709 38.2742 14.3235C38.1796 14.2761 35.294 22.6674 31.8407 32.955L25.5964 51.634ZM2.79518 41.1567C2.9844 41.1567 5.20775 40.5404 7.76225 39.7345L12.3509 38.3596C9.18141 33.1921 8.14069 31.7224 8.04608 31.7224C7.95147 31.7224 6.62692 33.8558 5.16045 36.4633C3.64668 39.0707 2.60596 41.1567 2.79518 41.1567ZM26.3533 53.2933C39.8826 53.4829 47.4988 53.4829 51.9928 53.3881L60.1293 53.2933C46.9311 42.816 42.8628 39.687 42.5317 39.5448C42.2006 39.45 38.4161 42.4841 34.1586 46.3242L26.3533 53.2933Z" fill="#D82646"/>
<path d="M122.925 31.4036C121.453 29.7064 119.302 28.6315 116.472 28.0657C118.453 27.4434 120.095 26.3119 121.284 24.7278C122.472 23.2003 123.095 21.3334 123.095 19.0138C123.095 15.7891 121.85 13.2998 119.472 11.546C117.095 9.79222 113.755 8.88702 109.453 8.88702H92.9231V11.3763H109.339C112.792 11.3763 115.453 12.0552 117.321 13.413C119.189 14.7708 120.151 16.6943 120.151 19.2401C120.151 21.8426 119.189 23.8227 117.321 25.1804C115.453 26.5382 112.792 27.1605 109.339 27.1605H92.9231V29.6498H110.585C114.377 29.6498 117.321 30.3287 119.302 31.6299C121.284 32.9877 122.303 35.0244 122.303 37.7965C122.303 40.6252 121.284 42.6619 119.302 44.0197C117.321 45.3775 114.434 45.9998 110.585 45.9998H92.9231V48.4891H110.585C115.396 48.4891 119.019 47.5839 121.51 45.7735C123.944 43.9631 125.19 41.4173 125.19 38.0228C125.19 35.3638 124.397 33.1574 122.925 31.4036Z" fill="#191919"/>
<path d="M162.248 21.3334C160.266 19.4664 157.436 18.5047 153.813 18.5047C151.549 18.5047 149.341 18.9007 147.303 19.6362C145.209 20.3716 143.454 21.39 141.982 22.6912L143.397 24.7279C144.643 23.5964 146.114 22.6912 147.926 22.0123C149.737 21.3334 151.605 20.9939 153.587 20.9939C156.417 20.9939 158.625 21.7294 160.097 23.1438C161.568 24.6147 162.361 26.708 162.361 29.4235V31.7996H152.228C148.379 31.7996 145.548 32.5917 143.794 34.1192C142.039 35.6467 141.19 37.6268 141.19 40.0595C141.19 42.6054 142.095 44.642 144.02 46.1695C145.945 47.7536 148.549 48.4891 151.832 48.4891C154.323 48.4891 156.53 48.0365 158.342 47.0747C160.153 46.113 161.512 44.7552 162.474 43.0014V48.2628H165.191V29.5367C165.191 25.9159 164.172 23.2003 162.248 21.3334ZM158.455 44.4723C156.757 45.6038 154.662 46.1695 152.228 46.1695C149.624 46.1695 147.586 45.6604 146.171 44.5289C144.699 43.3974 144.02 41.8699 144.02 39.9464C144.02 38.136 144.643 36.665 145.945 35.5901C147.247 34.5718 149.341 34.006 152.285 34.006H162.361V39.5503C161.455 41.7002 160.153 43.3408 158.455 44.4723Z" fill="#191919"/>
<path d="M191.72 32.7048L204.287 48.4891H207.797L193.815 30.8944L206.552 18.9573H202.929L184.022 36.2124V6.51089H181.191V48.4891H184.022V39.7201L191.72 32.7048Z" fill="#191919"/>
<path d="M244.855 21.3334C242.874 19.4664 240.044 18.5047 236.421 18.5047C234.156 18.5047 231.949 18.9007 229.911 19.6362C227.816 20.3716 226.061 21.39 224.59 22.6912L226.005 24.7279C227.25 23.5964 228.722 22.6912 230.533 22.0123C232.345 21.3334 234.213 20.9939 236.194 20.9939C239.025 20.9939 241.232 21.7294 242.704 23.1438C244.176 24.6147 244.969 26.708 244.969 29.4235V31.7996H234.836C230.986 31.7996 228.156 32.5917 226.401 34.1192C224.646 35.6467 223.797 37.6268 223.797 40.0595C223.797 42.6054 224.703 44.642 226.628 46.1695C228.552 47.7536 231.156 48.4891 234.439 48.4891C236.93 48.4891 239.138 48.0365 240.949 47.0747C242.761 46.113 244.119 44.7552 245.082 43.0014V48.2628H247.799V29.5367C247.799 25.9159 246.78 23.2003 244.855 21.3334ZM241.063 44.4723C239.364 45.6038 237.27 46.1695 234.836 46.1695C232.232 46.1695 230.194 45.6604 228.779 44.5289C227.307 43.3974 226.628 41.8699 226.628 39.9464C226.628 38.136 227.25 36.665 228.552 35.5901C229.854 34.5718 231.949 34.006 234.892 34.006H244.969V39.5503C244.063 41.7002 242.761 43.3408 241.063 44.4723Z" fill="#191919"/>
<path d="M267.935 44.4157C270.709 47.3576 274.615 48.772 279.653 48.772C284.635 48.772 288.541 47.3576 291.371 44.4157C294.145 41.5304 295.56 37.2874 295.56 31.6865V8.88702H292.673V31.5733C292.673 36.4387 291.541 40.1161 289.333 42.4922C287.069 44.9249 283.899 46.113 279.71 46.113C275.464 46.113 272.238 44.9249 270.03 42.4922C267.766 40.1161 266.69 36.4387 266.69 31.5733V8.88702H263.803V31.6865C263.803 37.2874 265.162 41.5304 267.935 44.4157Z" fill="#D82646"/>
<path d="M309.031 8.88702V48.4891H311.918V8.88702H309.031Z" fill="#D82646"/>
</svg>
