<svg width="397" height="74" viewBox="0 0 397 74" fill="none" xmlns="http://www.w3.org/2000/svg">
<path d="M111.122 58L96.9629 22.4043H96.8311C96.8662 23.0547 96.8926 23.7402 96.9102 24.4609C96.9453 25.1641 96.9717 25.9023 96.9893 26.6758C97.0068 27.4492 97.0156 28.2578 97.0156 29.1016V58H94.4316V19.4512H98.5449L112.203 53.7812H112.361L126.125 19.4512H130.133V58H127.47V28.7852C127.47 28.0996 127.479 27.3965 127.496 26.6758C127.514 25.9551 127.531 25.2432 127.549 24.54C127.584 23.8193 127.619 23.125 127.654 22.457H127.496L113.284 58H111.122ZM150.383 28.8379C153.529 28.8379 155.885 29.6289 157.449 31.2109C159.014 32.793 159.796 35.3154 159.796 38.7783V58H157.739L157.265 52.9902H157.106C156.491 54.0625 155.744 55.0205 154.865 55.8643C153.986 56.6904 152.905 57.3408 151.622 57.8154C150.356 58.29 148.81 58.5273 146.981 58.5273C145.136 58.5273 143.554 58.2197 142.235 57.6045C140.935 56.9893 139.924 56.0928 139.203 54.915C138.5 53.7373 138.148 52.3047 138.148 50.6172C138.148 47.7695 139.326 45.6074 141.682 44.1309C144.037 42.6367 147.421 41.793 151.833 41.5996L157.159 41.3359V39.2529C157.159 36.3174 156.579 34.2256 155.419 32.9775C154.259 31.7295 152.545 31.1055 150.277 31.1055C148.801 31.1055 147.377 31.2988 146.006 31.6855C144.652 32.0547 143.272 32.5908 141.866 33.2939L141.022 31.0791C142.394 30.4287 143.861 29.8926 145.426 29.4707C147.008 29.0488 148.66 28.8379 150.383 28.8379ZM157.133 43.4189L152.123 43.6299C148.484 43.8057 145.716 44.4561 143.817 45.5811C141.919 46.7061 140.97 48.3936 140.97 50.6436C140.97 52.4541 141.532 53.8428 142.657 54.8096C143.8 55.7764 145.382 56.2598 147.403 56.2598C150.55 56.2598 152.949 55.3633 154.602 53.5703C156.271 51.7773 157.115 49.334 157.133 46.2402V43.4189ZM176.75 56.2334C177.576 56.2334 178.341 56.1719 179.044 56.0488C179.765 55.9258 180.397 55.7676 180.942 55.5742V57.7891C180.38 57.9824 179.721 58.1494 178.965 58.29C178.209 58.4482 177.374 58.5273 176.46 58.5273C174.843 58.5273 173.498 58.2285 172.426 57.6309C171.354 57.0156 170.545 56.0928 170 54.8623C169.455 53.6143 169.183 52.0322 169.183 50.1162V31.5537H164.911V29.9717L169.156 29.1543L170.079 22.4043H171.846V29.3389H180.784V31.5537H171.846V49.958C171.846 52.0146 172.224 53.5791 172.979 54.6514C173.753 55.7061 175.01 56.2334 176.75 56.2334ZM197.949 28.7852C200.393 28.7852 202.423 29.3564 204.04 30.499C205.675 31.6416 206.888 33.2061 207.679 35.1924C208.487 37.1787 208.892 39.4551 208.892 42.0215V43.9463H188.193C188.193 47.8838 189.099 50.9072 190.909 53.0166C192.737 55.126 195.348 56.1807 198.74 56.1807C200.516 56.1807 202.054 56.04 203.354 55.7588C204.673 55.46 206.132 54.959 207.731 54.2559V56.708C206.325 57.3408 204.919 57.7979 203.513 58.0791C202.106 58.3779 200.489 58.5273 198.661 58.5273C195.761 58.5273 193.326 57.9297 191.357 56.7344C189.406 55.5215 187.93 53.8164 186.928 51.6191C185.943 49.4219 185.451 46.8555 185.451 43.9199C185.451 41.0547 185.926 38.4795 186.875 36.1943C187.842 33.9092 189.248 32.1074 191.094 30.7891C192.957 29.4531 195.242 28.7852 197.949 28.7852ZM197.923 31.0791C195.181 31.0791 192.957 31.9932 191.252 33.8213C189.564 35.6318 188.571 38.251 188.272 41.6787H206.123C206.123 39.5869 205.824 37.7412 205.227 36.1416C204.629 34.542 203.724 33.3027 202.511 32.4238C201.315 31.5273 199.786 31.0791 197.923 31.0791ZM228.192 28.8379C228.948 28.8379 229.66 28.8818 230.328 28.9697C230.996 29.0576 231.62 29.1807 232.2 29.3389L231.778 31.791C231.198 31.6328 230.609 31.5186 230.012 31.4482C229.414 31.3604 228.772 31.3164 228.087 31.3164C226.733 31.3164 225.521 31.5713 224.448 32.0811C223.394 32.5908 222.497 33.3203 221.759 34.2695C221.021 35.2188 220.458 36.3613 220.071 37.6973C219.685 39.0332 219.491 40.5273 219.491 42.1797V58H216.802V29.3389H219.096L219.359 34.7441H219.518C219.957 33.6367 220.572 32.6436 221.363 31.7646C222.172 30.8682 223.147 30.1562 224.29 29.6289C225.433 29.1016 226.733 28.8379 228.192 28.8379ZM240.479 29.3389V58H237.816V29.3389H240.479ZM239.188 18.7393C239.855 18.7393 240.348 18.9414 240.664 19.3457C240.98 19.7324 241.139 20.2598 241.139 20.9277C241.139 21.5957 240.98 22.123 240.664 22.5098C240.348 22.8965 239.855 23.0898 239.188 23.0898C238.555 23.0898 238.08 22.8965 237.764 22.5098C237.447 22.123 237.289 21.5957 237.289 20.9277C237.289 20.2598 237.447 19.7324 237.764 19.3457C238.08 18.9414 238.555 18.7393 239.188 18.7393ZM260.07 28.8379C263.217 28.8379 265.572 29.6289 267.137 31.2109C268.701 32.793 269.483 35.3154 269.483 38.7783V58H267.427L266.952 52.9902H266.794C266.179 54.0625 265.432 55.0205 264.553 55.8643C263.674 56.6904 262.593 57.3408 261.31 57.8154C260.044 58.29 258.497 58.5273 256.669 58.5273C254.823 58.5273 253.241 58.2197 251.923 57.6045C250.622 56.9893 249.611 56.0928 248.891 54.915C248.188 53.7373 247.836 52.3047 247.836 50.6172C247.836 47.7695 249.014 45.6074 251.369 44.1309C253.725 42.6367 257.108 41.793 261.521 41.5996L266.847 41.3359V39.2529C266.847 36.3174 266.267 34.2256 265.106 32.9775C263.946 31.7295 262.232 31.1055 259.965 31.1055C258.488 31.1055 257.064 31.2988 255.693 31.6855C254.34 32.0547 252.96 32.5908 251.554 33.2939L250.71 31.0791C252.081 30.4287 253.549 29.8926 255.113 29.4707C256.695 29.0488 258.348 28.8379 260.07 28.8379ZM266.82 43.4189L261.811 43.6299C258.172 43.8057 255.403 44.4561 253.505 45.5811C251.606 46.7061 250.657 48.3936 250.657 50.6436C250.657 52.4541 251.22 53.8428 252.345 54.8096C253.487 55.7764 255.069 56.2598 257.091 56.2598C260.237 56.2598 262.637 55.3633 264.289 53.5703C265.959 51.7773 266.803 49.334 266.82 46.2402V43.4189ZM281.401 58H278.712V16.9727H281.401V58Z" fill="#191919"/>
<path d="M315.31 38.7783L325.566 19.4512H330.392L317.551 43.0498V58H313.068V43.2607L300.201 19.4512H305.105L315.31 38.7783ZM359.949 43.498C359.949 45.8711 359.642 47.9893 359.026 49.8525C358.411 51.7158 357.523 53.2891 356.363 54.5723C355.203 55.8555 353.797 56.8398 352.145 57.5254C350.51 58.1934 348.655 58.5273 346.581 58.5273C344.647 58.5273 342.872 58.1934 341.255 57.5254C339.655 56.8398 338.267 55.8555 337.089 54.5723C335.929 53.2891 335.023 51.7158 334.373 49.8525C333.74 47.9893 333.424 45.8711 333.424 43.498C333.424 40.334 333.96 37.6445 335.032 35.4297C336.104 33.1973 337.634 31.501 339.62 30.3408C341.624 29.1631 344.006 28.5742 346.766 28.5742C349.402 28.5742 351.705 29.1631 353.674 30.3408C355.66 31.5186 357.198 33.2236 358.288 35.4561C359.396 37.6709 359.949 40.3516 359.949 43.498ZM337.959 43.498C337.959 45.8184 338.267 47.8311 338.882 49.5361C339.497 51.2412 340.446 52.5596 341.729 53.4912C343.013 54.4229 344.665 54.8887 346.687 54.8887C348.69 54.8887 350.334 54.4229 351.617 53.4912C352.918 52.5596 353.876 51.2412 354.491 49.5361C355.106 47.8311 355.414 45.8184 355.414 43.498C355.414 41.1953 355.106 39.209 354.491 37.5391C353.876 35.8516 352.927 34.5508 351.644 33.6367C350.36 32.7227 348.699 32.2656 346.66 32.2656C343.654 32.2656 341.448 33.2588 340.042 35.2451C338.653 37.2314 337.959 39.9824 337.959 43.498ZM391.379 29.1016V58H387.793L387.16 53.9395H386.923C386.325 54.9414 385.552 55.7852 384.603 56.4707C383.653 57.1562 382.581 57.666 381.386 58C380.208 58.3516 378.951 58.5273 377.615 58.5273C375.33 58.5273 373.414 58.1582 371.867 57.4199C370.32 56.6816 369.151 55.5391 368.36 53.9922C367.587 52.4453 367.2 50.459 367.2 48.0332V29.1016H371.63V47.7168C371.63 50.125 372.175 51.9268 373.265 53.1221C374.354 54.2998 376.016 54.8887 378.248 54.8887C380.393 54.8887 382.098 54.4844 383.363 53.6758C384.646 52.8672 385.569 51.6807 386.132 50.1162C386.694 48.5342 386.976 46.6006 386.976 44.3154V29.1016H391.379Z" fill="#6750A4"/>
<path fill-rule="evenodd" clip-rule="evenodd" d="M59.2778 10.0061C59.7035 9.95869 60.082 10.1957 60.082 10.4328C60.082 10.6698 56.3449 19.0611 43.5724 47.1744L47.3095 47.2692C50.2898 47.364 51.094 47.5537 51.094 48.1226C51.094 48.6915 50.3844 48.8811 44.8497 49.0707L55.1149 57.225L58.4263 55.7079C60.2239 54.8546 64.1976 52.9582 72.6179 48.8337H63.961C56.6287 48.8337 55.3515 48.7389 55.3515 48.1226C55.3515 47.5063 56.8652 47.4114 65.9952 47.4114C72.6179 47.4114 76.7335 47.6011 76.8754 47.8855C77.0173 48.1226 76.8281 48.5492 76.497 48.7389C76.2131 48.9759 71.7664 51.1093 66.7048 53.5271C61.6431 55.945 57.291 58.0784 57.1018 58.2206C56.9125 58.4102 58.1898 59.6902 59.9401 61.0651C61.6904 62.4873 63.1568 63.8622 63.1568 64.1466C63.1568 64.5733 57.9533 64.763 23.4203 65L18.3113 57.3672C13.8173 50.6352 13.1078 49.8293 12.1616 50.0663C11.594 50.2085 8.70835 51.1093 5.82272 52.0575C2.29059 53.2269 0.366838 53.6536 0.0514686 53.3375C-0.279669 53.0056 0.85566 50.5878 7.3365 39.352L17.4598 39.4468C25.076 39.5416 27.6305 39.7313 27.7724 40.2053C27.867 40.632 25.8329 40.7742 18.6898 40.7742C13.6281 40.7742 9.46524 40.8691 9.46524 41.0113C9.46524 41.1535 12.5874 45.9418 16.4191 51.6782C20.2982 57.4146 23.5149 61.9659 23.6569 61.8236C23.7988 61.6814 27.0628 52.0101 38.085 19.2034L48.2556 14.6047C53.8377 12.0921 58.8047 10.0061 59.2305 10.0061H59.2778ZM39.8826 20.9101C39.788 21.2419 40.403 26.7887 41.2071 33.1889C42.0586 39.589 42.7209 44.8514 42.7682 44.8514C42.8155 44.8988 46.2215 37.5979 50.2898 28.6377C54.4053 19.6774 57.6221 12.3291 57.3856 12.3765C57.1964 12.3765 53.2227 14.1781 48.5395 16.3114C43.8563 18.4448 39.9772 20.5308 39.8826 20.9101ZM25.5964 61.634C31.6988 56.3242 35.1994 53.2427 37.3281 51.4412C40.4976 48.6915 41.1598 47.8855 41.1598 46.7003C41.1598 45.8944 40.5449 40.5846 39.788 34.8482C39.0311 29.1117 38.3215 24.3709 38.2742 24.3235C38.1796 24.2761 35.294 32.6674 31.8407 42.955L25.5964 61.634ZM2.79518 51.1567C2.9844 51.1567 5.20775 50.5404 7.76225 49.7345L12.3509 48.3596C9.18141 43.1921 8.14069 41.7224 8.04608 41.7224C7.95147 41.7224 6.62692 43.8558 5.16045 46.4633C3.64668 49.0707 2.60596 51.1567 2.79518 51.1567ZM26.3533 63.2933C39.8826 63.4829 47.4988 63.4829 51.9928 63.3881L60.1293 63.2933C46.9311 52.816 42.8628 49.687 42.5317 49.5448C42.2006 49.45 38.4161 52.4841 34.1586 56.3242L26.3533 63.2933Z" fill="#6750A4"/>
</svg>
